<?xml version="1.0" encoding="UTF-8" standalone="no"?>
<!DOCTYPE svg PUBLIC "-//W3C//DTD SVG 1.1//EN" "http://www.w3.org/Graphics/SVG/1.1/DTD/svg11.dtd">
<svg width="100%" height="100%" viewBox="0 0 1173 1182" version="1.1" xmlns="http://www.w3.org/2000/svg" xmlns:xlink="http://www.w3.org/1999/xlink" xml:space="preserve" xmlns:serif="http://www.serif.com/" style="fill-rule:evenodd;clip-rule:evenodd;stroke-linejoin:round;stroke-miterlimit:2;">
    <g transform="matrix(1,0,0,1,-594.768,-708.661)">
        <path d="M1767.44,1370.08C1732.37,1662.66 1483.05,1889.76 1181.1,1889.76C879.157,1889.76 629.835,1662.66 594.768,1370.08L894.401,1370.08C926.182,1498.87 1042.56,1594.49 1181.1,1594.49C1319.64,1594.49 1436.02,1498.87 1467.8,1370.08L1767.44,1370.08ZM594.768,1228.35C629.835,935.76 879.157,708.661 1181.1,708.661C1483.05,708.661 1732.37,935.76 1767.44,1228.35L1467.8,1228.35C1436.02,1099.55 1319.64,1003.94 1181.1,1003.94C1042.56,1003.94 926.182,1099.55 894.401,1228.35L594.768,1228.35Z" style="fill:rgb(68, 169, 241);"/>
        <g transform="matrix(1.4,0,0,1.4,-505.512,-519.685)">
            <circle cx="1204.72" cy="1299.21" r="118.11" style="fill:rgb(68, 169, 241);"/>
        </g>
    </g>
</svg>
